<?xml version="1.0" standalone="no"?>
<!DOCTYPE svg PUBLIC "-//W3C//DTD SVG 20010904//EN"
 "http://www.w3.org/TR/2001/REC-SVG-20010904/DTD/svg10.dtd">
<svg version="1.0" xmlns="http://www.w3.org/2000/svg"
 width="1024.000000pt" height="1024.000000pt" viewBox="0 0 1024.000000 1024.000000"
 preserveAspectRatio="xMidYMid meet">
<metadata>
Created by potrace 1.11, written by Peter Selinger 2001-2013
</metadata>
<g transform="translate(0.000000,1024.000000) scale(0.100000,-0.100000)"
fill="#000000" stroke="none">
<path d="M0 5120 l0 -5120 5120 0 5120 0 0 5120 0 5120 -5120 0 -5120 0 0
-5120z m1565 2931 c41 -19 306 -280 1407 -1380 1457 -1455 1396 -1391 1414
-1508 11 -76 -13 -167 -61 -231 -24 -31 -645 -658 -1381 -1393 -1300 -1298
-1341 -1337 -1399 -1359 -80 -29 -188 -25 -259 9 -71 35 -422 371 -460 442
-42 75 -48 187 -16 274 25 66 39 81 1564 1612 l599 601 -1059 1067 c-739 743
-1068 1082 -1089 1118 -28 48 -30 59 -30 152 0 144 13 164 249 388 230 218
266 240 391 235 59 -2 93 -10 130 -27z m7723 -4915 c78 -36 143 -105 172 -183
20 -53 21 -72 18 -342 -3 -286 -3 -286 -29 -342 -31 -66 -90 -128 -151 -161
l-43 -23 -2155 -3 -2155 -2 -62 30 c-76 37 -135 102 -163 178 -20 53 -21 72
-18 351 l3 296 27 50 c47 88 136 156 231 175 23 4 992 7 2152 6 l2110 -1 63
-29z"/>
</g>
</svg>
